<svg aria-hidden="true" style="position: absolute; width: 0; height: 0; overflow: hidden;" version="1.1" xmlns="http://www.w3.org/2000/svg" xmlns:xlink="http://www.w3.org/1999/xlink">
<defs>
<symbol id="icon-shopify" viewBox="0 0 32 32">
<path fill="#fff" style="fill: var(--color1, #fff)" d="M11.524 27.529c0 0 6.549 0.032 8.71 1.839l-1.129 0.403c0 0-3.065-2.178-8.404-1.774 0.274-0.242 0.823-0.468 0.823-0.468z"></path>
<path fill="#fff" style="fill: var(--color1, #fff)" d="M20.735 27.529c0 0-6.549 0.032-8.71 1.839l1.129 0.403c0 0 3.065-2.178 8.404-1.774-0.274-0.242-0.823-0.468-0.823-0.468z"></path>
<path fill="#fff" style="fill: var(--color1, #fff)" d="M6.008 4.98c1.371-0.887 2.79-2.21 5.226-3.113-1.774 0.016-4.581 1.129-5.226 3.113z"></path>
<path fill="#fff" style="fill: var(--color1, #fff)" d="M7.589 5.254c-0.29 0.129-0.5 0.21-0.742 0.274-0.452 0.113-0.823 0.145-1.21 0.274-0.306 0.097-0.565 0.258-0.774 0.436-0.194 0.161-0.339 0.323-0.452 0.484-0.226 0.323-0.419 0.839-0.419 1.226 0.177-0.177 0.339-0.323 0.516-0.452 0.274-0.194 0.532-0.339 0.806-0.452 0.21-0.081 0.387-0.161 0.565-0.258 0.758-0.387 1.194-0.936 1.71-1.532z"></path>
<path fill="#fff" style="fill: var(--color1, #fff)" d="M3.976 7.964c0-0.565 0.516-1.516 0.823-1.887 0.21-0.258 0.371-0.548 0.516-0.855 0.258-0.532 0.484-1.145 0.548-1.613-0.323 0.194-0.661 0.403-1.016 0.677-0.774 0.629-1.21 1.306-1.097 2.226 0.032 0.371 0.032 1.145 0.226 1.452z"></path>
<path fill="#fff" style="fill: var(--color1, #fff)" d="M5.347 8.060c-0.258 0.177-0.452 0.29-0.661 0.387-0.419 0.177-0.774 0.274-1.113 0.468-0.274 0.145-0.484 0.339-0.661 0.565-0.161 0.194-0.258 0.371-0.339 0.548-0.145 0.355-0.226 0.903-0.129 1.274 0.129-0.21 0.258-0.371 0.403-0.532 0.21-0.242 0.436-0.419 0.694-0.581 0.177-0.113 0.339-0.226 0.5-0.339 0.629-0.5 0.936-1.129 1.306-1.79z"></path>
<path fill="#fff" style="fill: var(--color1, #fff)" d="M2.428 11.319c-0.129-0.548 0.161-1.581 0.387-1.984 0.145-0.29 0.242-0.597 0.306-0.919 0.129-0.565 0.21-1.194 0.177-1.661-0.274 0.258-0.548 0.5-0.855 0.839-0.613 0.742-0.887 1.484-0.581 2.371 0.113 0.339 0.306 1.081 0.565 1.355z"></path>
<path fill="#fff" style="fill: var(--color1, #fff)" d="M4.008 10.867c-0.21 0.258-0.371 0.435-0.565 0.597-0.371 0.306-0.726 0.5-1.016 0.79-0.242 0.242-0.387 0.5-0.5 0.774-0.097 0.258-0.145 0.468-0.161 0.677-0.032 0.419 0.097 1.016 0.323 1.403 0.065-0.258 0.145-0.468 0.226-0.677 0.145-0.306 0.323-0.565 0.532-0.806 0.145-0.177 0.29-0.339 0.403-0.5 0.516-0.71 0.613-1.452 0.758-2.258z"></path>
<path fill="#fff" style="fill: var(--color1, #fff)" d="M2.088 15.126c-0.339-0.548-0.403-1.726-0.323-2.21 0.048-0.355 0.032-0.71 0-1.065-0.065-0.645-0.226-1.339-0.435-1.823-0.194 0.339-0.403 0.677-0.597 1.113-0.387 0.968-0.403 1.823 0.258 2.678 0.258 0.339 0.726 1.081 1.097 1.307z"></path>
<path fill="#fff" style="fill: var(--color1, #fff)" d="M3.379 14.173c-0.145 0.29-0.258 0.5-0.419 0.694-0.29 0.371-0.597 0.629-0.823 0.984-0.177 0.29-0.274 0.565-0.306 0.871-0.032 0.274-0.032 0.5 0.016 0.71 0.081 0.436 0.339 1 0.677 1.339 0-0.274 0.016-0.5 0.065-0.726 0.065-0.339 0.177-0.613 0.323-0.903 0.113-0.21 0.194-0.387 0.274-0.581 0.339-0.79 0.242-1.548 0.194-2.387z"></path>
<path fill="#fff" style="fill: var(--color1, #fff)" d="M2.525 18.787c-0.484-0.484-0.839-1.645-0.871-2.161-0.032-0.355-0.145-0.71-0.274-1.065-0.226-0.629-0.548-1.29-0.887-1.742-0.113 0.387-0.242 0.758-0.323 1.226-0.129 1.048 0.065 1.903 0.936 2.645 0.339 0.29 1 0.936 1.419 1.097z"></path>
<path fill="#fff" style="fill: var(--color1, #fff)" d="M3.445 17.335c-0.032 0.339-0.081 0.581-0.161 0.839-0.161 0.468-0.371 0.823-0.484 1.242-0.081 0.339-0.065 0.661 0.016 0.984 0.065 0.29 0.161 0.516 0.274 0.726 0.242 0.419 0.726 0.936 1.194 1.194-0.097-0.29-0.161-0.516-0.21-0.758-0.065-0.371-0.048-0.694 0-1.016 0.032-0.242 0.064-0.452 0.064-0.661 0.065-0.952-0.323-1.71-0.694-2.549z"></path>
<path fill="#fff" style="fill: var(--color1, #fff)" d="M4.299 22.319c-0.677-0.371-1.484-1.468-1.71-1.984-0.161-0.355-0.419-0.694-0.677-1.016-0.468-0.581-1.048-1.177-1.565-1.548 0.016 0.419 0.048 0.839 0.129 1.355 0.242 1.097 0.758 1.936 1.936 2.452 0.468 0.194 1.387 0.694 1.887 0.742z"></path>
<path fill="#fff" style="fill: var(--color1, #fff)" d="M4.718 20.481c0.097 0.371 0.145 0.645 0.161 0.936 0.016 0.548-0.081 0.984-0.016 1.468 0.048 0.387 0.194 0.726 0.403 1.032 0.194 0.29 0.371 0.5 0.581 0.694 0.436 0.371 1.161 0.79 1.758 0.919-0.226-0.274-0.387-0.5-0.516-0.742-0.21-0.371-0.323-0.726-0.403-1.081-0.065-0.274-0.129-0.5-0.194-0.726-0.339-1.016-1.048-1.71-1.774-2.5z"></path>
<path fill="#fff" style="fill: var(--color1, #fff)" d="M7.621 25.545c-0.871-0.194-2.161-1.129-2.613-1.597-0.323-0.339-0.71-0.613-1.129-0.887-0.726-0.484-1.597-0.952-2.29-1.194 0.194 0.452 0.387 0.887 0.677 1.403 0.694 1.097 1.581 1.839 3.049 2.048 0.565 0.065 1.758 0.323 2.307 0.226z"></path>
<path fill="#fff" style="fill: var(--color1, #fff)" d="M7.364 23.432c0.274 0.339 0.436 0.597 0.565 0.887 0.242 0.548 0.355 1 0.629 1.468 0.226 0.371 0.532 0.661 0.887 0.919 0.323 0.226 0.613 0.387 0.919 0.516 0.613 0.242 1.565 0.436 2.242 0.387-0.355-0.21-0.629-0.387-0.871-0.597-0.387-0.306-0.661-0.613-0.903-0.968-0.177-0.242-0.355-0.468-0.532-0.677-0.774-0.887-1.823-1.371-2.936-1.936z"></path>
<path fill="#fff" style="fill: var(--color1, #fff)" d="M12.637 27.61c-1 0.065-2.774-0.468-3.452-0.806-0.484-0.242-1.016-0.403-1.581-0.549-0.984-0.258-2.097-0.468-2.936-0.5 0.403 0.387 0.79 0.774 1.323 1.194 1.21 0.887 2.468 1.355 4.113 1.113 0.629-0.081 1.984-0.178 2.532-0.452z"></path>
<path fill="#fff" style="fill: var(--color1, #fff)" d="M26.254 4.98c-1.371-0.871-2.807-2.21-5.226-3.113 1.774 0.016 4.581 1.129 5.226 3.113z"></path>
<path fill="#fff" style="fill: var(--color1, #fff)" d="M24.672 5.254c0.29 0.129 0.5 0.21 0.742 0.274 0.452 0.113 0.823 0.145 1.21 0.274 0.306 0.097 0.564 0.258 0.774 0.436 0.193 0.161 0.339 0.323 0.451 0.484 0.226 0.323 0.419 0.839 0.419 1.226-0.177-0.177-0.339-0.323-0.516-0.452-0.274-0.194-0.532-0.339-0.823-0.452-0.21-0.081-0.387-0.161-0.564-0.258-0.742-0.387-1.177-0.936-1.694-1.532z"></path>
<path fill="#fff" style="fill: var(--color1, #fff)" d="M28.285 7.964c0-0.565-0.516-1.516-0.823-1.887-0.21-0.258-0.371-0.548-0.516-0.855-0.258-0.532-0.484-1.145-0.549-1.613 0.323 0.194 0.661 0.403 1.016 0.677 0.774 0.629 1.21 1.306 1.097 2.226-0.032 0.371-0.032 1.145-0.226 1.452z"></path>
<path fill="#fff" style="fill: var(--color1, #fff)" d="M26.917 8.060c0.258 0.177 0.451 0.29 0.661 0.387 0.419 0.177 0.774 0.274 1.113 0.468 0.274 0.145 0.484 0.339 0.661 0.565 0.161 0.194 0.258 0.371 0.339 0.548 0.145 0.355 0.226 0.903 0.129 1.274-0.129-0.21-0.258-0.371-0.403-0.532-0.21-0.242-0.435-0.419-0.694-0.581-0.177-0.113-0.339-0.226-0.5-0.339-0.629-0.5-0.935-1.129-1.306-1.79z"></path>
<path fill="#fff" style="fill: var(--color1, #fff)" d="M29.836 11.319c0.129-0.548-0.161-1.581-0.387-1.984-0.145-0.29-0.242-0.597-0.306-0.919-0.129-0.565-0.21-1.194-0.177-1.661 0.274 0.258 0.548 0.5 0.855 0.839 0.613 0.742 0.887 1.484 0.581 2.371-0.113 0.339-0.306 1.081-0.565 1.355z"></path>
<path fill="#fff" style="fill: var(--color1, #fff)" d="M28.253 10.867c0.21 0.258 0.371 0.435 0.565 0.597 0.371 0.306 0.726 0.5 1.016 0.79 0.242 0.242 0.387 0.5 0.5 0.774 0.097 0.258 0.145 0.468 0.161 0.677 0.032 0.419-0.097 1.016-0.323 1.403-0.065-0.258-0.145-0.468-0.226-0.677-0.145-0.306-0.322-0.565-0.532-0.806-0.145-0.177-0.29-0.339-0.403-0.5-0.516-0.71-0.613-1.452-0.758-2.258z"></path>
<path fill="#fff" style="fill: var(--color1, #fff)" d="M30.172 15.126c0.339-0.548 0.403-1.726 0.323-2.21-0.048-0.355-0.032-0.71 0-1.065 0.065-0.645 0.226-1.339 0.435-1.823 0.194 0.339 0.403 0.677 0.597 1.113 0.387 0.968 0.403 1.823-0.258 2.678-0.258 0.339-0.726 1.081-1.097 1.307z"></path>
<path fill="#fff" style="fill: var(--color1, #fff)" d="M28.883 14.173c0.145 0.29 0.258 0.5 0.419 0.694 0.29 0.371 0.597 0.629 0.823 0.984 0.177 0.29 0.274 0.565 0.306 0.871 0.032 0.274 0.032 0.5-0.016 0.71-0.081 0.436-0.339 1-0.678 1.339 0-0.274-0.016-0.5-0.065-0.726-0.065-0.339-0.177-0.613-0.322-0.903-0.113-0.21-0.194-0.387-0.274-0.581-0.339-0.79-0.242-1.548-0.193-2.387z"></path>
<path fill="#fff" style="fill: var(--color1, #fff)" d="M29.738 18.787c0.484-0.484 0.839-1.645 0.871-2.161 0.032-0.355 0.145-0.71 0.274-1.065 0.226-0.629 0.549-1.29 0.887-1.742 0.113 0.387 0.242 0.758 0.323 1.226 0.145 1.032-0.049 1.887-0.936 2.629-0.339 0.306-1 0.952-1.419 1.113z"></path>
<path fill="#fff" style="fill: var(--color1, #fff)" d="M28.821 17.335c0.032 0.339 0.081 0.581 0.161 0.839 0.161 0.468 0.371 0.823 0.484 1.242 0.081 0.339 0.065 0.661-0.016 0.984-0.065 0.29-0.161 0.516-0.274 0.726-0.242 0.419-0.726 0.936-1.194 1.194 0.097-0.29 0.161-0.516 0.21-0.758 0.065-0.371 0.048-0.694 0-1.016-0.032-0.242-0.065-0.452-0.065-0.661-0.065-0.952 0.323-1.71 0.694-2.549z"></path>
<path fill="#fff" style="fill: var(--color1, #fff)" d="M27.966 22.319c0.678-0.371 1.484-1.468 1.71-1.984 0.161-0.355 0.419-0.694 0.677-1.016 0.468-0.581 1.049-1.177 1.565-1.548-0.016 0.419-0.048 0.839-0.129 1.355-0.242 1.097-0.758 1.936-1.935 2.452-0.468 0.194-1.387 0.694-1.887 0.742z"></path>
<path fill="#fff" style="fill: var(--color1, #fff)" d="M27.545 20.481c-0.097 0.371-0.145 0.645-0.161 0.936-0.016 0.548 0.081 0.984 0.016 1.468-0.049 0.387-0.194 0.726-0.403 1.032-0.193 0.29-0.371 0.5-0.581 0.694-0.436 0.371-1.161 0.79-1.758 0.919 0.226-0.274 0.387-0.5 0.516-0.742 0.21-0.371 0.323-0.726 0.403-1.081 0.065-0.274 0.129-0.5 0.194-0.726 0.339-1.016 1.048-1.71 1.774-2.5z"></path>
<path fill="#fff" style="fill: var(--color1, #fff)" d="M24.641 25.545c0.871-0.194 2.161-1.129 2.613-1.597 0.323-0.339 0.71-0.613 1.129-0.887 0.726-0.484 1.597-0.952 2.29-1.194-0.194 0.452-0.387 0.887-0.677 1.403-0.694 1.097-1.581 1.839-3.049 2.048-0.565 0.065-1.758 0.323-2.307 0.226z"></path>
<path fill="#fff" style="fill: var(--color1, #fff)" d="M24.901 23.432c-0.274 0.339-0.436 0.597-0.565 0.887-0.242 0.548-0.355 1-0.629 1.468-0.226 0.371-0.532 0.661-0.887 0.919-0.323 0.226-0.613 0.387-0.919 0.516-0.613 0.242-1.565 0.436-2.242 0.387 0.355-0.21 0.629-0.387 0.871-0.597 0.387-0.306 0.661-0.613 0.903-0.968 0.177-0.242 0.355-0.468 0.532-0.677 0.774-0.887 1.823-1.371 2.936-1.936z"></path>
<path fill="#fff" style="fill: var(--color1, #fff)" d="M19.625 27.61c1 0.065 2.774-0.468 3.452-0.806 0.484-0.242 1.016-0.403 1.581-0.549 0.984-0.258 2.097-0.468 2.936-0.5-0.403 0.387-0.79 0.774-1.323 1.194-1.21 0.887-2.468 1.355-4.113 1.113-0.629-0.081-1.984-0.178-2.532-0.452z"></path>
<path fill="#fff" style="fill: var(--color1, #fff)" d="M19.942 10.69c-0.008-0.057-0.059-0.088-0.101-0.091s-0.859-0.016-0.859-0.016c0 0-0.684-0.648-0.751-0.713s-0.199-0.046-0.251-0.031c-0.001 0-0.128 0.039-0.343 0.104-0.036-0.114-0.089-0.254-0.164-0.394-0.243-0.453-0.6-0.693-1.030-0.693-0 0-0.001 0-0.001 0-0.030 0-0.060 0.003-0.089 0.005-0.013-0.015-0.025-0.030-0.039-0.044-0.188-0.196-0.428-0.291-0.716-0.283-0.556 0.016-1.11 0.407-1.559 1.103-0.316 0.49-0.556 1.105-0.625 1.581-0.639 0.193-1.085 0.328-1.095 0.331-0.322 0.099-0.333 0.109-0.375 0.405-0.032 0.224-0.875 6.587-0.875 6.587l7.069 1.192 3.064-0.743c0 0-1.25-8.244-1.258-8.3zM13.808 11.099c0.191-0.872 0.94-2.18 1.799-2.204 0.131-0.003 0.241 0.025 0.335 0.086-0.15 0.076-0.296 0.185-0.432 0.328-0.353 0.37-0.624 0.944-0.732 1.497-0.337 0.102-0.666 0.201-0.969 0.293zM16.364 10.327c-0.37 0.112-0.775 0.234-1.18 0.356 0.114-0.426 0.33-0.85 0.596-1.128 0.099-0.103 0.237-0.219 0.401-0.285 0.154 0.313 0.187 0.757 0.184 1.056zM16.734 10.215c-0.004-0.275-0.038-0.657-0.169-0.987 0.422 0.078 0.63 0.544 0.718 0.822-0.163 0.049-0.348 0.105-0.549 0.166z"></path>
<path fill="#fff" style="fill: var(--color1, #fff)" d="M19.843 10.599c-0.042-0.003-0.859-0.016-0.859-0.016s-0.684-0.648-0.751-0.713c-0.025-0.025-0.059-0.037-0.095-0.043l0 9.906 3.064-0.743c0 0-1.25-8.244-1.258-8.3s-0.059-0.088-0.101-0.091z"></path>
<path fill="#010c07" style="fill: var(--color2, #010c07)" d="M16.438 12.135l-0.356 1.299c0 0-0.397-0.176-0.868-0.147-0.69 0.043-0.697 0.467-0.69 0.573 0.038 0.581 1.604 0.708 1.692 2.068 0.069 1.070-0.582 1.802-1.52 1.86-1.126 0.069-1.746-0.579-1.746-0.579l0.239-0.99c0 0 0.624 0.459 1.123 0.428 0.326-0.020 0.443-0.279 0.431-0.462-0.049-0.758-1.324-0.713-1.405-1.958-0.068-1.048 0.637-2.109 2.194-2.205 0.6-0.037 0.907 0.112 0.907 0.112z"></path>
</symbol>
<symbol id="icon-instagram" viewBox="0 0 32 32">
<path fill="#fff" style="fill: var(--color1, #fff)" d="M16.002 9.112c-3.798 0-6.887 3.090-6.887 6.887s3.090 6.887 6.887 6.887c3.798 0 6.887-3.090 6.887-6.887s-3.090-6.887-6.887-6.887z"></path>
<path fill="#fff" style="fill: var(--color1, #fff)" d="M23.228 0h-14.455c-4.837 0-8.772 3.935-8.772 8.772v14.455c0 4.837 3.935 8.772 8.772 8.772h14.455c4.837 0 8.772-3.935 8.772-8.772v-14.455c0-4.837-3.935-8.772-8.772-8.772zM16 24.777c-4.84 0-8.777-3.937-8.777-8.777s3.937-8.777 8.777-8.777 8.777 3.937 8.777 8.777c0 4.84-3.937 8.777-8.777 8.777zM25.302 9.365c-1.47 0-2.667-1.196-2.667-2.667s1.196-2.667 2.667-2.667c1.47 0 2.667 1.196 2.667 2.667s-1.196 2.667-2.667 2.667z"></path>
</symbol>
<symbol id="icon-linkedin" viewBox="0 0 32 32">
<path fill="#fff" style="fill: var(--color1, #fff)" d="M31.996 32l0.008-0.001v-11.736c0-5.741-1.236-10.164-7.948-10.164-3.227 0-5.392 1.771-6.276 3.449h-0.093v-2.913h-6.364v21.364h6.627v-10.579c0-2.785 0.528-5.479 3.977-5.479 3.399 0 3.449 3.179 3.449 5.657v10.401h6.62z"></path>
<path fill="#fff" style="fill: var(--color1, #fff)" d="M0.531 10.635h6.635v21.364h-6.635v-21.364z"></path>
<path fill="#fff" style="fill: var(--color1, #fff)" d="M3.843 0c-2.121 0-3.843 1.721-3.843 3.843s1.721 3.879 3.843 3.879c2.121 0 3.843-1.757 3.843-3.879-0.001-2.121-1.723-3.843-3.843-3.843z"></path>
</symbol>
<symbol id="icon-telegram" viewBox="0 0 32 32">
<path fill="#f9f9f9" style="fill: var(--color3, #f9f9f9)" d="M2.617 15.831l6.44 2.187 15.29-9.348c0.222-0.136 0.449 0.165 0.258 0.341l-11.576 10.655-0.43 5.965c-0.033 0.454 0.514 0.706 0.838 0.387l3.564-3.505 6.516 4.933c0.702 0.532 1.719 0.157 1.909-0.703l4.537-20.6c0.259-1.175-0.893-2.167-2.017-1.736l-25.362 9.712c-0.796 0.305-0.774 1.438 0.033 1.712z"></path>
</symbol>
<symbol id="icon-copy" viewBox="0 0 27 32">
<path fill="#fff" style="fill: var(--color1, #fff)" d="M18.476 1.333h-14.667c-1.467 0-2.667 1.2-2.667 2.667v17.333c0 0.733 0.6 1.333 1.333 1.333s1.333-0.6 1.333-1.333v-16c0-0.733 0.6-1.333 1.333-1.333h13.333c0.733 0 1.333-0.6 1.333-1.333s-0.6-1.333-1.333-1.333zM23.81 6.667h-14.667c-1.467 0-2.667 1.2-2.667 2.667v18.667c0 1.467 1.2 2.667 2.667 2.667h14.667c1.467 0 2.667-1.2 2.667-2.667v-18.667c0-1.467-1.2-2.667-2.667-2.667zM22.476 28h-12c-0.733 0-1.333-0.6-1.333-1.333v-16c0-0.733 0.6-1.333 1.333-1.333h12c0.733 0 1.333 0.6 1.333 1.333v16c0 0.733-0.6 1.333-1.333 1.333z"></path>
</symbol>
<symbol id="icon-star" viewBox="0 0 32 32">
<path fill="#fff" style="fill: var(--color1, #fff)" d="M14.888 1.022c0.35-1.077 1.874-1.077 2.224 0l2.936 9.037c0.156 0.482 0.605 0.808 1.112 0.808h9.502c1.133 0 1.604 1.449 0.687 2.115l-7.687 5.585c-0.41 0.298-0.581 0.826-0.425 1.307l2.936 9.036c0.35 1.077-0.883 1.973-1.799 1.307l-7.687-5.585c-0.41-0.298-0.965-0.298-1.374 0l-7.687 5.585c-0.916 0.666-2.149-0.23-1.799-1.307l2.936-9.036c0.157-0.482-0.015-1.010-0.425-1.307l-7.687-5.585c-0.916-0.666-0.445-2.115 0.687-2.115h9.502c0.507 0 0.955-0.326 1.112-0.808l2.936-9.037z"></path>
</symbol>
<symbol id="icon-setup" viewBox="0 0 32 32">
<path fill="#a2a2a2" style="fill: var(--color4, #a2a2a2)" d="M4.688 9.375c2.589 0 4.688-2.099 4.688-4.688s-2.099-4.688-4.688-4.688c-2.589 0-4.688 2.099-4.688 4.688s2.099 4.688 4.688 4.688z"></path>
<path fill="#a2a2a2" style="fill: var(--color4, #a2a2a2)" d="M16.003 20.687c2.589 0 4.687-2.099 4.687-4.687s-2.099-4.688-4.687-4.688c-2.589 0-4.688 2.099-4.688 4.688s2.099 4.687 4.688 4.687z"></path>
<path fill="#a2a2a2" style="fill: var(--color4, #a2a2a2)" d="M27.313 32c2.589 0 4.687-2.099 4.687-4.687s-2.099-4.688-4.687-4.688c-2.589 0-4.688 2.099-4.688 4.688s2.099 4.687 4.688 4.687z"></path>
<path fill="#a2a2a2" style="fill: var(--color4, #a2a2a2)" d="M11 6.563c0.167-0.617 0.251-1.244 0.251-1.875s-0.084-1.258-0.251-1.875h19.126c1.035 0 1.875 0.841 1.875 1.875s-0.84 1.875-1.875 1.875h-19.126z"></path>
<path fill="#a2a2a2" style="fill: var(--color4, #a2a2a2)" d="M9.438 16c0-0.656 0.126-1.277 0.306-1.875h-7.869c-1.035 0-1.875 0.841-1.875 1.875s0.84 1.875 1.875 1.875h7.869c-0.18-0.598-0.306-1.219-0.306-1.875z"></path>
<path fill="#a2a2a2" style="fill: var(--color4, #a2a2a2)" d="M30.124 14.125h-7.869c0.18 0.598 0.306 1.219 0.306 1.875s-0.126 1.277-0.306 1.875h7.869c1.035 0 1.875-0.841 1.875-1.875s-0.84-1.875-1.875-1.875z"></path>
<path fill="#a2a2a2" style="fill: var(--color4, #a2a2a2)" d="M1.875 29.187c-1.035 0-1.875-0.841-1.875-1.875s0.84-1.875 1.875-1.875h19.126c-0.167 0.617-0.251 1.244-0.251 1.875s0.084 1.258 0.251 1.875h-19.126z"></path>
</symbol>
<symbol id="icon-write-onboarding" viewBox="0 0 32 32">
<path fill="#a1a1a1" style="fill: var(--color5, #a1a1a1)" d="M23.99 1.006c-0.78 0.011-1.527 0.323-2.078 0.872l-2.301 2.299 6.254 6.254 2.301-2.299c1.164-1.165 1.164-3.086 0-4.251 0 0-2.009-2.003-2.011-2.003-0.576-0.574-1.353-0.887-2.166-0.872zM18.196 5.593l-14.317 14.318c-0.56 0.562-0.88 1.329-0.88 2.122v4.006c-0.002 0.557 0.45 1.009 1.007 1.006l4.006-0.008c0.794-0.001 1.552-0.312 2.115-0.872l14.325-14.317-6.256-6.254zM3.904 29.048c-0.001 0.001-0.001 0.001-0.002 0.002-1.305 0.097-1.204 2.042 0.104 2.003h24.036c1.366 0.031 1.366-2.034 0-2.003h-24.036c-0.034-0.002-0.068-0.003-0.102-0.002z"></path>
</symbol>
<symbol id="icon-calendar-onboarding" viewBox="0 0 27 32">
<path d="M11.229 20.632l1.333 1.333c0.199 0.199 0.472 0.304 0.753 0.292 0.28-0.013 0.543-0.144 0.723-0.36l2.221-2.667c0.353-0.424 0.296-1.055-0.128-1.408s-1.055-0.296-1.408 0.128l-1.521 1.825-0.559-0.559c-0.391-0.391-1.024-0.391-1.415 0-0.389 0.391-0.389 1.024 0 1.415z"></path>
<path d="M27.381 11.981v14.333c0 0.972-0.387 1.905-1.073 2.593-0.688 0.687-1.622 1.073-2.593 1.073h-20c-0.972 0-1.905-0.387-2.593-1.073-0.687-0.688-1.073-1.621-1.073-2.593v-14.333h27.333zM13.714 13.352c-3.496 0-6.333 2.837-6.333 6.333 0 3.495 2.837 6.333 6.333 6.333s6.333-2.839 6.333-6.333c0-3.496-2.837-6.333-6.333-6.333zM0.048 9.981h27.333v-2.296c0-0.972-0.387-1.905-1.073-2.593-0.688-0.687-1.622-1.073-2.593-1.073h-3v3.333c0 0.552-0.448 1-1 1s-1-0.448-1-1v-3.333h-10v3.333c0 0.552-0.448 1-1 1s-1-0.448-1-1v-3.333h-3c-0.972 0-1.905 0.387-2.593 1.073-0.687 0.688-1.073 1.621-1.073 2.593v2.296z"></path>
<path d="M18.714 4.018h2v-1c0-0.552-0.448-1-1-1s-1 0.448-1 1v1z"></path>
<path d="M6.714 4.018h2v-1c0-0.552-0.448-1-1-1s-1 0.448-1 1v1z"></path>
</symbol>
<symbol id="icon-play-work" viewBox="0 0 29 32">
<path fill="#fff" style="fill: var(--color1, #fff)" d="M26.895 13.684c1.888 1.090 1.888 3.815 0 4.905l-22.3 12.875c-1.888 1.090-4.248-0.273-4.248-2.452v-25.75c0-2.18 2.36-3.542 4.248-2.452l22.3 12.875z"></path>
</symbol>
<symbol id="icon-job-success" viewBox="0 0 32 32">
<path fill="#fff" style="fill: var(--color1, #fff)" d="M11.524 27.529c0 0 6.549 0.032 8.71 1.839l-1.129 0.403c0 0-3.065-2.178-8.404-1.774 0.274-0.242 0.823-0.468 0.823-0.468z"></path>
<path fill="#fff" style="fill: var(--color1, #fff)" d="M20.735 27.529c0 0-6.549 0.032-8.71 1.839l1.129 0.403c0 0 3.065-2.178 8.404-1.774-0.274-0.242-0.823-0.468-0.823-0.468z"></path>
<path fill="#fff" style="fill: var(--color1, #fff)" d="M6.008 4.98c1.371-0.887 2.79-2.21 5.226-3.113-1.774 0.016-4.581 1.129-5.226 3.113z"></path>
<path fill="#fff" style="fill: var(--color1, #fff)" d="M7.589 5.254c-0.29 0.129-0.5 0.21-0.742 0.274-0.452 0.113-0.823 0.145-1.21 0.274-0.306 0.097-0.565 0.258-0.774 0.436-0.194 0.161-0.339 0.323-0.452 0.484-0.226 0.323-0.419 0.839-0.419 1.226 0.177-0.177 0.339-0.323 0.516-0.452 0.274-0.194 0.532-0.339 0.806-0.452 0.21-0.081 0.387-0.161 0.565-0.258 0.758-0.387 1.194-0.936 1.71-1.532z"></path>
<path fill="#fff" style="fill: var(--color1, #fff)" d="M3.976 7.964c0-0.565 0.516-1.516 0.823-1.887 0.21-0.258 0.371-0.548 0.516-0.855 0.258-0.532 0.484-1.145 0.548-1.613-0.323 0.194-0.661 0.403-1.016 0.677-0.774 0.629-1.21 1.306-1.097 2.226 0.032 0.371 0.032 1.145 0.226 1.452z"></path>
<path fill="#fff" style="fill: var(--color1, #fff)" d="M5.347 8.060c-0.258 0.177-0.452 0.29-0.661 0.387-0.419 0.177-0.774 0.274-1.113 0.468-0.274 0.145-0.484 0.339-0.661 0.565-0.161 0.194-0.258 0.371-0.339 0.548-0.145 0.355-0.226 0.903-0.129 1.274 0.129-0.21 0.258-0.371 0.403-0.532 0.21-0.242 0.436-0.419 0.694-0.581 0.177-0.113 0.339-0.226 0.5-0.339 0.629-0.5 0.936-1.129 1.306-1.79z"></path>
<path fill="#fff" style="fill: var(--color1, #fff)" d="M2.428 11.319c-0.129-0.548 0.161-1.581 0.387-1.984 0.145-0.29 0.242-0.597 0.306-0.919 0.129-0.565 0.21-1.194 0.177-1.661-0.274 0.258-0.548 0.5-0.855 0.839-0.613 0.742-0.887 1.484-0.581 2.371 0.113 0.339 0.306 1.081 0.565 1.355z"></path>
<path fill="#fff" style="fill: var(--color1, #fff)" d="M4.008 10.867c-0.21 0.258-0.371 0.435-0.565 0.597-0.371 0.306-0.726 0.5-1.016 0.79-0.242 0.242-0.387 0.5-0.5 0.774-0.097 0.258-0.145 0.468-0.161 0.677-0.032 0.419 0.097 1.016 0.323 1.403 0.065-0.258 0.145-0.468 0.226-0.677 0.145-0.306 0.323-0.565 0.532-0.806 0.145-0.177 0.29-0.339 0.403-0.5 0.516-0.71 0.613-1.452 0.758-2.258z"></path>
<path fill="#fff" style="fill: var(--color1, #fff)" d="M2.088 15.126c-0.339-0.548-0.403-1.726-0.323-2.21 0.048-0.355 0.032-0.71 0-1.065-0.065-0.645-0.226-1.339-0.435-1.823-0.194 0.339-0.403 0.677-0.597 1.113-0.387 0.968-0.403 1.823 0.258 2.678 0.258 0.339 0.726 1.081 1.097 1.307z"></path>
<path fill="#fff" style="fill: var(--color1, #fff)" d="M3.379 14.173c-0.145 0.29-0.258 0.5-0.419 0.694-0.29 0.371-0.597 0.629-0.823 0.984-0.177 0.29-0.274 0.565-0.306 0.871-0.032 0.274-0.032 0.5 0.016 0.71 0.081 0.436 0.339 1 0.677 1.339 0-0.274 0.016-0.5 0.065-0.726 0.065-0.339 0.177-0.613 0.323-0.903 0.113-0.21 0.194-0.387 0.274-0.581 0.339-0.79 0.242-1.548 0.194-2.387z"></path>
<path fill="#fff" style="fill: var(--color1, #fff)" d="M2.525 18.787c-0.484-0.484-0.839-1.645-0.871-2.161-0.032-0.355-0.145-0.71-0.274-1.065-0.226-0.629-0.548-1.29-0.887-1.742-0.113 0.387-0.242 0.758-0.323 1.226-0.129 1.048 0.065 1.903 0.936 2.645 0.339 0.29 1 0.936 1.419 1.097z"></path>
<path fill="#fff" style="fill: var(--color1, #fff)" d="M3.445 17.335c-0.032 0.339-0.081 0.581-0.161 0.839-0.161 0.468-0.371 0.823-0.484 1.242-0.081 0.339-0.065 0.661 0.016 0.984 0.065 0.29 0.161 0.516 0.274 0.726 0.242 0.419 0.726 0.936 1.194 1.194-0.097-0.29-0.161-0.516-0.21-0.758-0.065-0.371-0.048-0.694 0-1.016 0.032-0.242 0.064-0.452 0.064-0.661 0.065-0.952-0.323-1.71-0.694-2.549z"></path>
<path fill="#fff" style="fill: var(--color1, #fff)" d="M4.299 22.319c-0.677-0.371-1.484-1.468-1.71-1.984-0.161-0.355-0.419-0.694-0.677-1.016-0.468-0.581-1.048-1.177-1.565-1.548 0.016 0.419 0.048 0.839 0.129 1.355 0.242 1.097 0.758 1.936 1.936 2.452 0.468 0.194 1.387 0.694 1.887 0.742z"></path>
<path fill="#fff" style="fill: var(--color1, #fff)" d="M4.718 20.481c0.097 0.371 0.145 0.645 0.161 0.936 0.016 0.548-0.081 0.984-0.016 1.468 0.048 0.387 0.194 0.726 0.403 1.032 0.194 0.29 0.371 0.5 0.581 0.694 0.436 0.371 1.161 0.79 1.758 0.919-0.226-0.274-0.387-0.5-0.516-0.742-0.21-0.371-0.323-0.726-0.403-1.081-0.065-0.274-0.129-0.5-0.194-0.726-0.339-1.016-1.048-1.71-1.774-2.5z"></path>
<path fill="#fff" style="fill: var(--color1, #fff)" d="M7.621 25.545c-0.871-0.194-2.161-1.129-2.613-1.597-0.323-0.339-0.71-0.613-1.129-0.887-0.726-0.484-1.597-0.952-2.29-1.194 0.194 0.452 0.387 0.887 0.677 1.403 0.694 1.097 1.581 1.839 3.049 2.048 0.565 0.065 1.758 0.323 2.307 0.226z"></path>
<path fill="#fff" style="fill: var(--color1, #fff)" d="M7.364 23.432c0.274 0.339 0.436 0.597 0.565 0.887 0.242 0.548 0.355 1 0.629 1.468 0.226 0.371 0.532 0.661 0.887 0.919 0.323 0.226 0.613 0.387 0.919 0.516 0.613 0.242 1.565 0.436 2.242 0.387-0.355-0.21-0.629-0.387-0.871-0.597-0.387-0.306-0.661-0.613-0.903-0.968-0.177-0.242-0.355-0.468-0.532-0.677-0.774-0.887-1.823-1.371-2.936-1.936z"></path>
<path fill="#fff" style="fill: var(--color1, #fff)" d="M12.637 27.61c-1 0.065-2.774-0.468-3.452-0.806-0.484-0.242-1.016-0.403-1.581-0.549-0.984-0.258-2.097-0.468-2.936-0.5 0.403 0.387 0.79 0.774 1.323 1.194 1.21 0.887 2.468 1.355 4.113 1.113 0.629-0.081 1.984-0.178 2.532-0.452z"></path>
<path fill="#fff" style="fill: var(--color1, #fff)" d="M26.254 4.98c-1.371-0.871-2.807-2.21-5.226-3.113 1.774 0.016 4.581 1.129 5.226 3.113z"></path>
<path fill="#fff" style="fill: var(--color1, #fff)" d="M24.672 5.254c0.29 0.129 0.5 0.21 0.742 0.274 0.452 0.113 0.823 0.145 1.21 0.274 0.307 0.097 0.564 0.258 0.774 0.436 0.193 0.161 0.339 0.323 0.451 0.484 0.226 0.323 0.419 0.839 0.419 1.226-0.177-0.177-0.339-0.323-0.516-0.452-0.274-0.194-0.532-0.339-0.822-0.452-0.21-0.081-0.387-0.161-0.565-0.258-0.742-0.387-1.177-0.936-1.694-1.532z"></path>
<path fill="#fff" style="fill: var(--color1, #fff)" d="M28.285 7.964c0-0.565-0.516-1.516-0.823-1.887-0.21-0.258-0.371-0.548-0.516-0.855-0.258-0.532-0.484-1.145-0.549-1.613 0.323 0.194 0.661 0.403 1.016 0.677 0.774 0.629 1.21 1.306 1.097 2.226-0.032 0.371-0.032 1.145-0.226 1.452z"></path>
<path fill="#fff" style="fill: var(--color1, #fff)" d="M26.917 8.060c0.258 0.177 0.451 0.29 0.661 0.387 0.419 0.177 0.774 0.274 1.113 0.468 0.274 0.145 0.484 0.339 0.661 0.565 0.161 0.194 0.258 0.371 0.339 0.548 0.145 0.355 0.226 0.903 0.129 1.274-0.129-0.21-0.258-0.371-0.403-0.532-0.21-0.242-0.435-0.419-0.694-0.581-0.177-0.113-0.339-0.226-0.5-0.339-0.629-0.5-0.935-1.129-1.306-1.79z"></path>
<path fill="#fff" style="fill: var(--color1, #fff)" d="M29.836 11.319c0.129-0.548-0.161-1.581-0.387-1.984-0.145-0.29-0.242-0.597-0.306-0.919-0.129-0.565-0.21-1.194-0.177-1.661 0.274 0.258 0.548 0.5 0.855 0.839 0.613 0.742 0.887 1.484 0.581 2.371-0.113 0.339-0.306 1.081-0.565 1.355z"></path>
<path fill="#fff" style="fill: var(--color1, #fff)" d="M28.253 10.867c0.21 0.258 0.371 0.435 0.565 0.597 0.371 0.306 0.726 0.5 1.016 0.79 0.242 0.242 0.387 0.5 0.5 0.774 0.097 0.258 0.145 0.468 0.161 0.677 0.032 0.419-0.097 1.016-0.323 1.403-0.065-0.258-0.145-0.468-0.226-0.677-0.145-0.306-0.322-0.565-0.532-0.806-0.145-0.177-0.29-0.339-0.403-0.5-0.516-0.71-0.613-1.452-0.758-2.258z"></path>
<path fill="#fff" style="fill: var(--color1, #fff)" d="M30.172 15.126c0.339-0.548 0.403-1.726 0.323-2.21-0.048-0.355-0.032-0.71 0-1.065 0.065-0.645 0.226-1.339 0.435-1.823 0.194 0.339 0.403 0.677 0.597 1.113 0.387 0.968 0.403 1.823-0.258 2.678-0.258 0.339-0.726 1.081-1.097 1.307z"></path>
<path fill="#fff" style="fill: var(--color1, #fff)" d="M28.883 14.173c0.145 0.29 0.258 0.5 0.419 0.694 0.29 0.371 0.597 0.629 0.823 0.984 0.177 0.29 0.274 0.565 0.306 0.871 0.032 0.274 0.032 0.5-0.016 0.71-0.081 0.436-0.339 1-0.678 1.339 0-0.274-0.016-0.5-0.065-0.726-0.065-0.339-0.177-0.613-0.322-0.903-0.113-0.21-0.194-0.387-0.274-0.581-0.339-0.79-0.242-1.548-0.193-2.387z"></path>
<path fill="#fff" style="fill: var(--color1, #fff)" d="M29.738 18.787c0.484-0.484 0.839-1.645 0.871-2.161 0.032-0.355 0.145-0.71 0.274-1.065 0.226-0.629 0.549-1.29 0.887-1.742 0.113 0.387 0.242 0.758 0.323 1.226 0.145 1.032-0.049 1.887-0.936 2.629-0.339 0.306-1 0.952-1.419 1.113z"></path>
<path fill="#fff" style="fill: var(--color1, #fff)" d="M28.821 17.335c0.032 0.339 0.081 0.581 0.161 0.839 0.161 0.468 0.371 0.823 0.484 1.242 0.081 0.339 0.065 0.661-0.016 0.984-0.065 0.29-0.161 0.516-0.274 0.726-0.242 0.419-0.726 0.936-1.194 1.194 0.097-0.29 0.161-0.516 0.21-0.758 0.065-0.371 0.048-0.694 0-1.016-0.032-0.242-0.065-0.452-0.065-0.661-0.065-0.952 0.323-1.71 0.694-2.549z"></path>
<path fill="#fff" style="fill: var(--color1, #fff)" d="M27.966 22.319c0.678-0.371 1.484-1.468 1.71-1.984 0.161-0.355 0.419-0.694 0.677-1.016 0.468-0.581 1.049-1.177 1.565-1.548-0.016 0.419-0.048 0.839-0.129 1.355-0.242 1.097-0.758 1.936-1.935 2.452-0.468 0.194-1.387 0.694-1.887 0.742z"></path>
<path fill="#fff" style="fill: var(--color1, #fff)" d="M27.545 20.481c-0.097 0.371-0.145 0.645-0.161 0.936-0.016 0.548 0.081 0.984 0.016 1.468-0.049 0.387-0.194 0.726-0.403 1.032-0.193 0.29-0.371 0.5-0.581 0.694-0.436 0.371-1.161 0.79-1.758 0.919 0.226-0.274 0.387-0.5 0.516-0.742 0.21-0.371 0.323-0.726 0.403-1.081 0.065-0.274 0.129-0.5 0.194-0.726 0.339-1.016 1.048-1.71 1.774-2.5z"></path>
<path fill="#fff" style="fill: var(--color1, #fff)" d="M24.641 25.545c0.871-0.194 2.161-1.129 2.613-1.597 0.323-0.339 0.71-0.613 1.129-0.887 0.726-0.484 1.597-0.952 2.29-1.194-0.194 0.452-0.387 0.887-0.677 1.403-0.694 1.097-1.581 1.839-3.049 2.048-0.565 0.065-1.758 0.323-2.307 0.226z"></path>
<path fill="#fff" style="fill: var(--color1, #fff)" d="M24.901 23.432c-0.274 0.339-0.436 0.597-0.565 0.887-0.242 0.548-0.355 1-0.629 1.468-0.226 0.371-0.532 0.661-0.887 0.919-0.323 0.226-0.613 0.387-0.919 0.516-0.613 0.242-1.565 0.436-2.242 0.387 0.355-0.21 0.629-0.387 0.871-0.597 0.387-0.306 0.661-0.613 0.903-0.968 0.177-0.242 0.355-0.468 0.532-0.677 0.774-0.887 1.823-1.371 2.936-1.936z"></path>
<path fill="#fff" style="fill: var(--color1, #fff)" d="M19.625 27.61c1 0.065 2.774-0.468 3.452-0.806 0.484-0.242 1.016-0.403 1.581-0.549 0.984-0.258 2.097-0.468 2.936-0.5-0.403 0.387-0.79 0.774-1.323 1.194-1.21 0.887-2.468 1.355-4.113 1.113-0.629-0.081-1.984-0.178-2.532-0.452z"></path>
<path fill="#fff" style="fill: var(--color1, #fff)" d="M19.487 15.515c-0.564 0-1.093-0.234-1.573-0.616l0.117-0.538 0.005-0.020c0.104-0.573 0.434-1.536 1.451-1.536 0.762 0 1.382 0.608 1.382 1.356-0.003 0.745-0.623 1.354-1.382 1.354zM19.487 11.432c-1.299 0-2.305 0.828-2.714 2.189-0.625-0.92-1.098-2.024-1.375-2.954h-1.398v3.567c0 0.703-0.585 1.276-1.301 1.276s-1.301-0.573-1.301-1.276v-3.567h-1.398v3.567c-0.005 1.461 1.207 2.66 2.696 2.66s2.701-1.199 2.701-2.66v-0.598c0.272 0.556 0.605 1.117 1.009 1.615l-0.856 3.949h1.431l0.62-2.864c0.544 0.342 1.169 0.556 1.886 0.556 1.532 0 2.78-1.232 2.78-2.735 0-1.501-1.248-2.725-2.78-2.725z"></path>
</symbol>
<symbol id="icon-reviewed" viewBox="0 0 32 32">
<path fill="#fff" style="fill: var(--color1, #fff)" d="M11.524 27.529c0 0 6.549 0.032 8.71 1.839l-1.129 0.403c0 0-3.065-2.178-8.404-1.774 0.274-0.242 0.823-0.468 0.823-0.468z"></path>
<path fill="#fff" style="fill: var(--color1, #fff)" d="M20.735 27.529c0 0-6.549 0.032-8.71 1.839l1.129 0.403c0 0 3.065-2.178 8.404-1.774-0.274-0.242-0.823-0.468-0.823-0.468z"></path>
<path fill="#fff" style="fill: var(--color1, #fff)" d="M6.008 4.98c1.371-0.887 2.79-2.21 5.226-3.113-1.774 0.016-4.581 1.129-5.226 3.113z"></path>
<path fill="#fff" style="fill: var(--color1, #fff)" d="M7.589 5.254c-0.29 0.129-0.5 0.21-0.742 0.274-0.452 0.113-0.823 0.145-1.21 0.274-0.306 0.097-0.565 0.258-0.774 0.436-0.194 0.161-0.339 0.323-0.452 0.484-0.226 0.323-0.419 0.839-0.419 1.226 0.177-0.177 0.339-0.323 0.516-0.452 0.274-0.194 0.532-0.339 0.806-0.452 0.21-0.081 0.387-0.161 0.565-0.258 0.758-0.387 1.194-0.936 1.71-1.532z"></path>
<path fill="#fff" style="fill: var(--color1, #fff)" d="M3.976 7.964c0-0.565 0.516-1.516 0.823-1.887 0.21-0.258 0.371-0.548 0.516-0.855 0.258-0.532 0.484-1.145 0.548-1.613-0.323 0.194-0.661 0.403-1.016 0.677-0.774 0.629-1.21 1.306-1.097 2.226 0.032 0.371 0.032 1.145 0.226 1.452z"></path>
<path fill="#fff" style="fill: var(--color1, #fff)" d="M5.347 8.060c-0.258 0.177-0.452 0.29-0.661 0.387-0.419 0.177-0.774 0.274-1.113 0.468-0.274 0.145-0.484 0.339-0.661 0.565-0.161 0.194-0.258 0.371-0.339 0.548-0.145 0.355-0.226 0.903-0.129 1.274 0.129-0.21 0.258-0.371 0.403-0.532 0.21-0.242 0.436-0.419 0.694-0.581 0.177-0.113 0.339-0.226 0.5-0.339 0.629-0.5 0.936-1.129 1.306-1.79z"></path>
<path fill="#fff" style="fill: var(--color1, #fff)" d="M2.428 11.319c-0.129-0.548 0.161-1.581 0.387-1.984 0.145-0.29 0.242-0.597 0.306-0.919 0.129-0.565 0.21-1.194 0.177-1.661-0.274 0.258-0.548 0.5-0.855 0.839-0.613 0.742-0.887 1.484-0.581 2.371 0.113 0.339 0.306 1.081 0.565 1.355z"></path>
<path fill="#fff" style="fill: var(--color1, #fff)" d="M4.008 10.867c-0.21 0.258-0.371 0.435-0.565 0.597-0.371 0.306-0.726 0.5-1.016 0.79-0.242 0.242-0.387 0.5-0.5 0.774-0.097 0.258-0.145 0.468-0.161 0.677-0.032 0.419 0.097 1.016 0.323 1.403 0.065-0.258 0.145-0.468 0.226-0.677 0.145-0.306 0.323-0.565 0.532-0.806 0.145-0.177 0.29-0.339 0.403-0.5 0.516-0.71 0.613-1.452 0.758-2.258z"></path>
<path fill="#fff" style="fill: var(--color1, #fff)" d="M2.088 15.126c-0.339-0.548-0.403-1.726-0.323-2.21 0.048-0.355 0.032-0.71 0-1.065-0.065-0.645-0.226-1.339-0.435-1.823-0.194 0.339-0.403 0.677-0.597 1.113-0.387 0.968-0.403 1.823 0.258 2.678 0.258 0.339 0.726 1.081 1.097 1.307z"></path>
<path fill="#fff" style="fill: var(--color1, #fff)" d="M3.379 14.173c-0.145 0.29-0.258 0.5-0.419 0.694-0.29 0.371-0.597 0.629-0.823 0.984-0.177 0.29-0.274 0.565-0.306 0.871-0.032 0.274-0.032 0.5 0.016 0.71 0.081 0.436 0.339 1 0.677 1.339 0-0.274 0.016-0.5 0.065-0.726 0.065-0.339 0.177-0.613 0.323-0.903 0.113-0.21 0.194-0.387 0.274-0.581 0.339-0.79 0.242-1.548 0.194-2.387z"></path>
<path fill="#fff" style="fill: var(--color1, #fff)" d="M2.525 18.787c-0.484-0.484-0.839-1.645-0.871-2.161-0.032-0.355-0.145-0.71-0.274-1.065-0.226-0.629-0.548-1.29-0.887-1.742-0.113 0.387-0.242 0.758-0.323 1.226-0.129 1.048 0.065 1.903 0.936 2.645 0.339 0.29 1 0.936 1.419 1.097z"></path>
<path fill="#fff" style="fill: var(--color1, #fff)" d="M3.445 17.335c-0.032 0.339-0.081 0.581-0.161 0.839-0.161 0.468-0.371 0.823-0.484 1.242-0.081 0.339-0.065 0.661 0.016 0.984 0.064 0.29 0.161 0.516 0.274 0.726 0.242 0.419 0.726 0.936 1.194 1.194-0.097-0.29-0.161-0.516-0.21-0.758-0.064-0.371-0.048-0.694 0-1.016 0.032-0.242 0.065-0.452 0.065-0.661 0.064-0.952-0.323-1.71-0.694-2.549z"></path>
<path fill="#fff" style="fill: var(--color1, #fff)" d="M4.299 22.319c-0.677-0.371-1.484-1.468-1.71-1.984-0.161-0.355-0.419-0.694-0.677-1.016-0.468-0.581-1.048-1.177-1.565-1.548 0.016 0.419 0.048 0.839 0.129 1.355 0.242 1.097 0.758 1.936 1.936 2.452 0.468 0.194 1.387 0.694 1.887 0.742z"></path>
<path fill="#fff" style="fill: var(--color1, #fff)" d="M4.718 20.481c0.097 0.371 0.145 0.645 0.161 0.936 0.016 0.548-0.081 0.984-0.016 1.468 0.048 0.387 0.194 0.726 0.403 1.032 0.194 0.29 0.371 0.5 0.581 0.694 0.436 0.371 1.161 0.79 1.758 0.919-0.226-0.274-0.387-0.5-0.516-0.742-0.21-0.371-0.323-0.726-0.403-1.081-0.065-0.274-0.129-0.5-0.194-0.726-0.339-1.016-1.048-1.71-1.774-2.5z"></path>
<path fill="#fff" style="fill: var(--color1, #fff)" d="M7.621 25.545c-0.871-0.194-2.161-1.129-2.613-1.597-0.323-0.339-0.71-0.613-1.129-0.887-0.726-0.484-1.597-0.952-2.29-1.194 0.194 0.452 0.387 0.887 0.677 1.403 0.694 1.097 1.581 1.839 3.049 2.048 0.565 0.065 1.758 0.323 2.307 0.226z"></path>
<path fill="#fff" style="fill: var(--color1, #fff)" d="M7.364 23.432c0.274 0.339 0.436 0.597 0.565 0.887 0.242 0.548 0.355 1 0.629 1.468 0.226 0.371 0.532 0.661 0.887 0.919 0.323 0.226 0.613 0.387 0.919 0.516 0.613 0.242 1.565 0.436 2.242 0.387-0.355-0.21-0.629-0.387-0.871-0.597-0.387-0.306-0.661-0.613-0.903-0.968-0.177-0.242-0.355-0.468-0.532-0.677-0.774-0.887-1.823-1.371-2.936-1.936z"></path>
<path fill="#fff" style="fill: var(--color1, #fff)" d="M12.637 27.61c-1 0.065-2.774-0.468-3.452-0.806-0.484-0.242-1.016-0.403-1.581-0.549-0.984-0.258-2.097-0.468-2.936-0.5 0.403 0.387 0.79 0.774 1.323 1.194 1.21 0.887 2.468 1.355 4.113 1.113 0.629-0.081 1.984-0.178 2.532-0.452z"></path>
<path fill="#fff" style="fill: var(--color1, #fff)" d="M26.254 4.98c-1.371-0.871-2.807-2.21-5.226-3.113 1.774 0.016 4.581 1.129 5.226 3.113z"></path>
<path fill="#fff" style="fill: var(--color1, #fff)" d="M24.672 5.254c0.29 0.129 0.5 0.21 0.742 0.274 0.452 0.113 0.823 0.145 1.21 0.274 0.306 0.097 0.564 0.258 0.774 0.436 0.193 0.161 0.339 0.323 0.451 0.484 0.226 0.323 0.419 0.839 0.419 1.226-0.177-0.177-0.339-0.323-0.516-0.452-0.274-0.194-0.532-0.339-0.823-0.452-0.21-0.081-0.387-0.161-0.564-0.258-0.742-0.387-1.177-0.936-1.694-1.532z"></path>
<path fill="#fff" style="fill: var(--color1, #fff)" d="M28.285 7.964c0-0.565-0.516-1.516-0.823-1.887-0.21-0.258-0.371-0.548-0.516-0.855-0.258-0.532-0.484-1.145-0.549-1.613 0.323 0.194 0.661 0.403 1.016 0.677 0.774 0.629 1.21 1.306 1.097 2.226-0.032 0.371-0.032 1.145-0.226 1.452z"></path>
<path fill="#fff" style="fill: var(--color1, #fff)" d="M26.917 8.060c0.258 0.177 0.451 0.29 0.661 0.387 0.419 0.177 0.774 0.274 1.113 0.468 0.274 0.145 0.484 0.339 0.661 0.565 0.161 0.194 0.258 0.371 0.339 0.548 0.145 0.355 0.226 0.903 0.129 1.274-0.129-0.21-0.258-0.371-0.403-0.532-0.21-0.242-0.435-0.419-0.694-0.581-0.177-0.113-0.339-0.226-0.5-0.339-0.629-0.5-0.935-1.129-1.306-1.79z"></path>
<path fill="#fff" style="fill: var(--color1, #fff)" d="M29.836 11.319c0.129-0.548-0.161-1.581-0.387-1.984-0.145-0.29-0.242-0.597-0.306-0.919-0.129-0.565-0.21-1.194-0.177-1.661 0.274 0.258 0.548 0.5 0.855 0.839 0.613 0.742 0.887 1.484 0.581 2.371-0.113 0.339-0.306 1.081-0.565 1.355z"></path>
<path fill="#fff" style="fill: var(--color1, #fff)" d="M28.253 10.867c0.21 0.258 0.371 0.435 0.565 0.597 0.371 0.306 0.726 0.5 1.016 0.79 0.242 0.242 0.387 0.5 0.5 0.774 0.097 0.258 0.145 0.468 0.161 0.677 0.032 0.419-0.097 1.016-0.323 1.403-0.065-0.258-0.145-0.468-0.226-0.677-0.145-0.306-0.322-0.565-0.532-0.806-0.145-0.177-0.29-0.339-0.403-0.5-0.516-0.71-0.613-1.452-0.758-2.258z"></path>
<path fill="#fff" style="fill: var(--color1, #fff)" d="M30.172 15.126c0.339-0.548 0.403-1.726 0.323-2.21-0.048-0.355-0.032-0.71 0-1.065 0.065-0.645 0.226-1.339 0.435-1.823 0.194 0.339 0.403 0.677 0.597 1.113 0.387 0.968 0.403 1.823-0.258 2.678-0.258 0.339-0.726 1.081-1.097 1.307z"></path>
<path fill="#fff" style="fill: var(--color1, #fff)" d="M28.883 14.173c0.145 0.29 0.258 0.5 0.419 0.694 0.29 0.371 0.597 0.629 0.823 0.984 0.177 0.29 0.274 0.565 0.306 0.871 0.032 0.274 0.032 0.5-0.016 0.71-0.081 0.436-0.339 1-0.678 1.339 0-0.274-0.016-0.5-0.065-0.726-0.065-0.339-0.177-0.613-0.322-0.903-0.113-0.21-0.194-0.387-0.274-0.581-0.339-0.79-0.242-1.548-0.193-2.387z"></path>
<path fill="#fff" style="fill: var(--color1, #fff)" d="M29.738 18.787c0.484-0.484 0.839-1.645 0.871-2.161 0.032-0.355 0.145-0.71 0.274-1.065 0.226-0.629 0.549-1.29 0.887-1.742 0.113 0.387 0.242 0.758 0.323 1.226 0.145 1.032-0.049 1.887-0.936 2.629-0.339 0.306-1 0.952-1.419 1.113z"></path>
<path fill="#fff" style="fill: var(--color1, #fff)" d="M28.821 17.335c0.032 0.339 0.081 0.581 0.161 0.839 0.161 0.468 0.371 0.823 0.484 1.242 0.081 0.339 0.065 0.661-0.016 0.984-0.065 0.29-0.161 0.516-0.274 0.726-0.242 0.419-0.726 0.936-1.194 1.194 0.097-0.29 0.161-0.516 0.21-0.758 0.065-0.371 0.048-0.694 0-1.016-0.032-0.242-0.065-0.452-0.065-0.661-0.065-0.952 0.323-1.71 0.694-2.549z"></path>
<path fill="#fff" style="fill: var(--color1, #fff)" d="M27.966 22.319c0.678-0.371 1.484-1.468 1.71-1.984 0.161-0.355 0.419-0.694 0.677-1.016 0.468-0.581 1.049-1.177 1.565-1.548-0.016 0.419-0.048 0.839-0.129 1.355-0.242 1.097-0.758 1.936-1.935 2.452-0.468 0.194-1.387 0.694-1.887 0.742z"></path>
<path fill="#fff" style="fill: var(--color1, #fff)" d="M27.545 20.481c-0.097 0.371-0.145 0.645-0.161 0.936-0.016 0.548 0.081 0.984 0.016 1.468-0.049 0.387-0.194 0.726-0.403 1.032-0.193 0.29-0.371 0.5-0.581 0.694-0.436 0.371-1.161 0.79-1.758 0.919 0.226-0.274 0.387-0.5 0.516-0.742 0.21-0.371 0.323-0.726 0.403-1.081 0.065-0.274 0.129-0.5 0.194-0.726 0.339-1.016 1.048-1.71 1.774-2.5z"></path>
<path fill="#fff" style="fill: var(--color1, #fff)" d="M24.641 25.545c0.871-0.194 2.161-1.129 2.613-1.597 0.323-0.339 0.71-0.613 1.129-0.887 0.726-0.484 1.597-0.952 2.29-1.194-0.194 0.452-0.387 0.887-0.677 1.403-0.694 1.097-1.581 1.839-3.049 2.048-0.565 0.065-1.758 0.323-2.307 0.226z"></path>
<path fill="#fff" style="fill: var(--color1, #fff)" d="M24.901 23.432c-0.274 0.339-0.436 0.597-0.565 0.887-0.242 0.548-0.355 1-0.629 1.468-0.226 0.371-0.532 0.661-0.887 0.919-0.323 0.226-0.613 0.387-0.919 0.516-0.613 0.242-1.565 0.436-2.242 0.387 0.355-0.21 0.629-0.387 0.871-0.597 0.387-0.306 0.661-0.613 0.903-0.968 0.177-0.242 0.355-0.468 0.532-0.677 0.774-0.887 1.823-1.371 2.936-1.936z"></path>
<path fill="#fff" style="fill: var(--color1, #fff)" d="M19.625 27.61c1 0.065 2.774-0.468 3.452-0.806 0.484-0.242 1.016-0.403 1.581-0.549 0.984-0.258 2.097-0.468 2.936-0.5-0.403 0.387-0.79 0.774-1.323 1.194-1.21 0.887-2.468 1.355-4.113 1.113-0.629-0.081-1.984-0.178-2.532-0.452z"></path>
<path fill="#fff" style="fill: var(--color1, #fff)" d="M14.598 21.867c-0.136 0-0.262-0.024-0.38-0.072-0.117-0.049-0.219-0.116-0.304-0.202-0.084-0.085-0.144-0.185-0.182-0.298l0.43-0.099c0.017 0.062 0.049 0.115 0.094 0.16 0.047 0.045 0.101 0.079 0.163 0.104 0.063 0.025 0.128 0.037 0.194 0.037 0.086 0 0.165-0.018 0.237-0.054s0.128-0.085 0.17-0.146c0.042-0.062 0.063-0.13 0.063-0.205s-0.022-0.142-0.065-0.203c-0.042-0.062-0.099-0.11-0.17-0.146-0.072-0.036-0.15-0.054-0.235-0.054-0.102 0-0.188 0.016-0.256 0.048-0.067 0.032-0.118 0.066-0.154 0.102l-0.382-0.106 0.082-1.219h1.449v0.362h-1.21l0.167-0.136-0.059 0.848-0.082-0.086c0.069-0.054 0.149-0.095 0.241-0.122s0.18-0.040 0.265-0.040c0.167 0 0.314 0.033 0.443 0.099 0.13 0.065 0.231 0.154 0.304 0.267 0.074 0.113 0.111 0.242 0.111 0.386s-0.043 0.275-0.13 0.392c-0.086 0.116-0.201 0.209-0.343 0.278-0.141 0.069-0.295 0.104-0.463 0.104z"></path>
<path fill="#fff" style="fill: var(--color1, #fff)" d="M15.941 21.819v-0.395h0.458v0.395h-0.458z"></path>
<path fill="#fff" style="fill: var(--color1, #fff)" d="M17.84 21.867c-0.189 0-0.356-0.035-0.5-0.104-0.144-0.070-0.258-0.168-0.339-0.293-0.080-0.125-0.12-0.269-0.12-0.432v-0.742c0-0.163 0.040-0.307 0.12-0.432 0.081-0.125 0.195-0.222 0.339-0.291 0.144-0.070 0.311-0.106 0.5-0.106s0.355 0.035 0.498 0.106c0.144 0.069 0.257 0.166 0.339 0.291s0.122 0.269 0.122 0.432v0.742c0 0.163-0.041 0.307-0.122 0.432s-0.194 0.222-0.339 0.293c-0.143 0.069-0.309 0.104-0.498 0.104zM17.84 21.5c0.094 0 0.179-0.019 0.256-0.058 0.077-0.039 0.137-0.092 0.182-0.157 0.044-0.066 0.067-0.14 0.067-0.221v-0.798c0-0.082-0.022-0.156-0.067-0.221-0.044-0.066-0.105-0.118-0.182-0.157-0.077-0.039-0.162-0.059-0.256-0.059s-0.179 0.020-0.256 0.059c-0.077 0.038-0.137 0.091-0.182 0.157-0.044 0.065-0.067 0.139-0.067 0.221v0.798c0 0.081 0.022 0.155 0.067 0.221 0.044 0.065 0.105 0.117 0.182 0.157 0.077 0.038 0.162 0.058 0.256 0.058z"></path>
<path fill="#fff" style="fill: var(--color1, #fff)" d="M20.034 15.29v-0.89h-7.801v0.89h-1.433l0.527 1.288-0.527 1.288h2.637v-0.89h5.392v0.89h2.637l-0.527-1.288 0.527-1.288h-1.433z"></path>
<path fill="#fff" style="fill: var(--color1, #fff)" d="M14.872 11.326c0.081 0.078 0.118 0.191 0.099 0.301l-0.181 1.042c-0.048 0.278 0.247 0.489 0.5 0.358l0.949-0.492c0.101-0.052 0.221-0.052 0.321 0l0.949 0.492c0.253 0.131 0.549-0.081 0.5-0.358l-0.181-1.041c-0.019-0.11 0.018-0.223 0.099-0.301l0.768-0.738c0.205-0.197 0.092-0.539-0.191-0.58l-1.061-0.152c-0.112-0.016-0.209-0.086-0.26-0.186l-0.474-0.948c-0.127-0.253-0.492-0.253-0.619 0l-0.474 0.948c-0.050 0.1-0.147 0.17-0.26 0.186l-1.061 0.152c-0.283 0.041-0.396 0.383-0.191 0.58l0.767 0.738z"></path>
<path fill="#fff" style="fill: var(--color1, #fff)" d="M18.336 11.73l0.512 0.477c0.054 0.050 0.079 0.123 0.066 0.195l-0.121 0.674c-0.032 0.18 0.165 0.317 0.334 0.232l0.633-0.318c0.067-0.034 0.147-0.034 0.214 0l0.633 0.318c0.169 0.085 0.366-0.052 0.334-0.232l-0.121-0.674c-0.013-0.071 0.012-0.144 0.066-0.195l0.512-0.477c0.136-0.127 0.061-0.349-0.128-0.375l-0.707-0.098c-0.075-0.010-0.14-0.055-0.173-0.12l-0.316-0.613c-0.084-0.164-0.328-0.164-0.412 0l-0.316 0.613c-0.033 0.065-0.098 0.11-0.173 0.12l-0.707 0.098c-0.189 0.026-0.264 0.248-0.128 0.375z"></path>
<path fill="#fff" style="fill: var(--color1, #fff)" d="M11.43 12.207c0.059 0.050 0.086 0.123 0.072 0.195l-0.131 0.674c-0.035 0.18 0.179 0.317 0.361 0.232l0.685-0.318c0.072-0.034 0.159-0.034 0.232 0l0.685 0.318c0.183 0.085 0.396-0.052 0.361-0.232l-0.131-0.674c-0.014-0.071 0.013-0.144 0.072-0.195l0.555-0.477c0.148-0.127 0.066-0.349-0.138-0.375l-0.766-0.098c-0.081-0.010-0.151-0.055-0.188-0.12l-0.343-0.613c-0.091-0.164-0.355-0.164-0.447 0l-0.343 0.613c-0.036 0.065-0.106 0.11-0.188 0.12l-0.766 0.098c-0.204 0.026-0.286 0.248-0.138 0.375l0.554 0.477z"></path>
</symbol>
<symbol id="icon-top-rated" viewBox="0 0 32 32">
<path fill="#fff" style="fill: var(--color1, #fff)" d="M11.391 27.529c0 0 6.549 0.032 8.71 1.839l-1.129 0.403c0 0-3.065-2.178-8.404-1.774 0.274-0.242 0.823-0.468 0.823-0.468z"></path>
<path fill="#fff" style="fill: var(--color1, #fff)" d="M20.602 27.529c0 0-6.549 0.032-8.71 1.839l1.129 0.403c0 0 3.065-2.178 8.404-1.774-0.274-0.242-0.823-0.468-0.823-0.468z"></path>
<path fill="#fff" style="fill: var(--color1, #fff)" d="M5.875 4.98c1.371-0.887 2.79-2.21 5.226-3.113-1.774 0.016-4.581 1.129-5.226 3.113z"></path>
<path fill="#fff" style="fill: var(--color1, #fff)" d="M7.456 5.254c-0.29 0.129-0.5 0.21-0.742 0.274-0.452 0.113-0.823 0.145-1.21 0.274-0.306 0.097-0.565 0.258-0.774 0.436-0.194 0.161-0.339 0.323-0.452 0.484-0.226 0.323-0.419 0.839-0.419 1.226 0.177-0.177 0.339-0.323 0.516-0.452 0.274-0.194 0.532-0.339 0.806-0.452 0.21-0.081 0.387-0.161 0.565-0.258 0.758-0.387 1.194-0.936 1.71-1.532z"></path>
<path fill="#fff" style="fill: var(--color1, #fff)" d="M3.843 7.964c0-0.565 0.516-1.516 0.823-1.887 0.21-0.258 0.371-0.548 0.516-0.855 0.258-0.532 0.484-1.145 0.548-1.613-0.323 0.194-0.661 0.403-1.016 0.677-0.774 0.629-1.21 1.306-1.097 2.226 0.032 0.371 0.032 1.145 0.226 1.452z"></path>
<path fill="#fff" style="fill: var(--color1, #fff)" d="M5.214 8.060c-0.258 0.177-0.452 0.29-0.661 0.387-0.419 0.177-0.774 0.274-1.113 0.468-0.274 0.145-0.484 0.339-0.661 0.565-0.161 0.194-0.258 0.371-0.339 0.548-0.145 0.355-0.226 0.903-0.129 1.274 0.129-0.21 0.258-0.371 0.403-0.532 0.21-0.242 0.436-0.419 0.694-0.581 0.177-0.113 0.339-0.226 0.5-0.339 0.629-0.5 0.936-1.129 1.306-1.79z"></path>
<path fill="#fff" style="fill: var(--color1, #fff)" d="M2.295 11.319c-0.129-0.548 0.161-1.581 0.387-1.984 0.145-0.29 0.242-0.597 0.306-0.919 0.129-0.565 0.21-1.194 0.177-1.661-0.274 0.258-0.548 0.5-0.855 0.839-0.613 0.742-0.887 1.484-0.581 2.371 0.113 0.339 0.306 1.081 0.565 1.355z"></path>
<path fill="#fff" style="fill: var(--color1, #fff)" d="M3.875 10.867c-0.21 0.258-0.371 0.435-0.565 0.597-0.371 0.306-0.726 0.5-1.016 0.79-0.242 0.242-0.387 0.5-0.5 0.774-0.097 0.258-0.145 0.468-0.161 0.677-0.032 0.419 0.097 1.016 0.323 1.403 0.065-0.258 0.145-0.468 0.226-0.677 0.145-0.306 0.323-0.565 0.532-0.806 0.145-0.177 0.29-0.339 0.403-0.5 0.516-0.71 0.613-1.452 0.758-2.258z"></path>
<path fill="#fff" style="fill: var(--color1, #fff)" d="M1.955 15.126c-0.339-0.548-0.403-1.726-0.323-2.21 0.048-0.355 0.032-0.71 0-1.065-0.065-0.645-0.226-1.339-0.435-1.823-0.194 0.339-0.403 0.677-0.597 1.113-0.387 0.968-0.403 1.823 0.258 2.678 0.258 0.339 0.726 1.081 1.097 1.307z"></path>
<path fill="#fff" style="fill: var(--color1, #fff)" d="M3.246 14.173c-0.145 0.29-0.258 0.5-0.419 0.694-0.29 0.371-0.597 0.629-0.823 0.984-0.177 0.29-0.274 0.565-0.306 0.871-0.032 0.274-0.032 0.5 0.016 0.71 0.081 0.436 0.339 1 0.677 1.339 0-0.274 0.016-0.5 0.065-0.726 0.065-0.339 0.177-0.613 0.323-0.903 0.113-0.21 0.194-0.387 0.274-0.581 0.339-0.79 0.242-1.548 0.194-2.387z"></path>
<path fill="#fff" style="fill: var(--color1, #fff)" d="M2.391 18.787c-0.484-0.484-0.839-1.645-0.871-2.161-0.032-0.355-0.145-0.71-0.274-1.065-0.226-0.629-0.548-1.29-0.887-1.742-0.113 0.387-0.242 0.758-0.323 1.226-0.129 1.048 0.065 1.903 0.936 2.645 0.339 0.29 1 0.936 1.419 1.097z"></path>
<path fill="#fff" style="fill: var(--color1, #fff)" d="M3.311 17.335c-0.032 0.339-0.081 0.581-0.161 0.839-0.161 0.468-0.371 0.823-0.484 1.242-0.081 0.339-0.065 0.661 0.016 0.984 0.065 0.29 0.161 0.516 0.274 0.726 0.242 0.419 0.726 0.936 1.194 1.194-0.097-0.29-0.161-0.516-0.21-0.758-0.065-0.371-0.048-0.694 0-1.016 0.032-0.242 0.065-0.452 0.065-0.661 0.064-0.952-0.323-1.71-0.694-2.549z"></path>
<path fill="#fff" style="fill: var(--color1, #fff)" d="M4.166 22.319c-0.677-0.371-1.484-1.468-1.71-1.984-0.161-0.355-0.419-0.694-0.677-1.016-0.468-0.581-1.048-1.177-1.565-1.548 0.016 0.419 0.048 0.839 0.129 1.355 0.242 1.097 0.758 1.936 1.936 2.452 0.468 0.194 1.387 0.694 1.887 0.742z"></path>
<path fill="#fff" style="fill: var(--color1, #fff)" d="M4.585 20.481c0.097 0.371 0.145 0.645 0.161 0.936 0.016 0.548-0.081 0.984-0.016 1.468 0.048 0.387 0.194 0.726 0.403 1.032 0.194 0.29 0.371 0.5 0.581 0.694 0.436 0.371 1.161 0.79 1.758 0.919-0.226-0.274-0.387-0.5-0.516-0.742-0.21-0.371-0.323-0.726-0.403-1.081-0.065-0.274-0.129-0.5-0.194-0.726-0.339-1.016-1.048-1.71-1.774-2.5z"></path>
<path fill="#fff" style="fill: var(--color1, #fff)" d="M7.488 25.545c-0.871-0.194-2.161-1.129-2.613-1.597-0.323-0.339-0.71-0.613-1.129-0.887-0.726-0.484-1.597-0.952-2.29-1.194 0.194 0.452 0.387 0.887 0.677 1.403 0.694 1.097 1.581 1.839 3.049 2.048 0.565 0.065 1.758 0.323 2.307 0.226z"></path>
<path fill="#fff" style="fill: var(--color1, #fff)" d="M7.23 23.432c0.274 0.339 0.436 0.597 0.565 0.887 0.242 0.548 0.355 1 0.629 1.468 0.226 0.371 0.532 0.661 0.887 0.919 0.323 0.226 0.613 0.387 0.919 0.516 0.613 0.242 1.565 0.436 2.242 0.387-0.355-0.21-0.629-0.387-0.871-0.597-0.387-0.306-0.661-0.613-0.903-0.968-0.177-0.242-0.355-0.468-0.532-0.677-0.774-0.887-1.823-1.371-2.936-1.936z"></path>
<path fill="#fff" style="fill: var(--color1, #fff)" d="M12.504 27.61c-1 0.065-2.774-0.468-3.452-0.806-0.484-0.242-1.016-0.403-1.581-0.549-0.984-0.258-2.097-0.468-2.936-0.5 0.403 0.387 0.79 0.774 1.323 1.194 1.21 0.887 2.468 1.355 4.113 1.113 0.629-0.081 1.984-0.178 2.532-0.452z"></path>
<path fill="#fff" style="fill: var(--color1, #fff)" d="M26.12 4.98c-1.371-0.871-2.807-2.21-5.226-3.113 1.774 0.016 4.581 1.129 5.226 3.113z"></path>
<path fill="#fff" style="fill: var(--color1, #fff)" d="M24.538 5.254c0.29 0.129 0.5 0.21 0.742 0.274 0.452 0.113 0.823 0.145 1.21 0.274 0.307 0.097 0.564 0.258 0.774 0.436 0.193 0.161 0.339 0.323 0.451 0.484 0.226 0.323 0.419 0.839 0.419 1.226-0.177-0.177-0.339-0.323-0.516-0.452-0.274-0.194-0.532-0.339-0.822-0.452-0.21-0.081-0.387-0.161-0.565-0.258-0.742-0.387-1.177-0.936-1.694-1.532z"></path>
<path fill="#fff" style="fill: var(--color1, #fff)" d="M28.152 7.964c0-0.565-0.516-1.516-0.823-1.887-0.21-0.258-0.371-0.548-0.516-0.855-0.258-0.532-0.484-1.145-0.549-1.613 0.323 0.194 0.661 0.403 1.016 0.677 0.774 0.629 1.21 1.306 1.097 2.226-0.032 0.371-0.032 1.145-0.226 1.452z"></path>
<path fill="#fff" style="fill: var(--color1, #fff)" d="M26.783 8.060c0.258 0.177 0.451 0.29 0.661 0.387 0.419 0.177 0.774 0.274 1.113 0.468 0.274 0.145 0.484 0.339 0.661 0.565 0.161 0.194 0.258 0.371 0.339 0.548 0.145 0.355 0.226 0.903 0.129 1.274-0.129-0.21-0.258-0.371-0.403-0.532-0.21-0.242-0.435-0.419-0.694-0.581-0.177-0.113-0.339-0.226-0.5-0.339-0.629-0.5-0.935-1.129-1.306-1.79z"></path>
<path fill="#fff" style="fill: var(--color1, #fff)" d="M29.703 11.319c0.129-0.548-0.161-1.581-0.387-1.984-0.145-0.29-0.242-0.597-0.306-0.919-0.129-0.565-0.21-1.194-0.177-1.661 0.274 0.258 0.548 0.5 0.855 0.839 0.613 0.742 0.887 1.484 0.581 2.371-0.113 0.339-0.306 1.081-0.565 1.355z"></path>
<path fill="#fff" style="fill: var(--color1, #fff)" d="M28.119 10.867c0.21 0.258 0.371 0.435 0.565 0.597 0.371 0.306 0.726 0.5 1.016 0.79 0.242 0.242 0.387 0.5 0.5 0.774 0.097 0.258 0.145 0.468 0.161 0.677 0.032 0.419-0.097 1.016-0.323 1.403-0.065-0.258-0.145-0.468-0.226-0.677-0.145-0.306-0.322-0.565-0.532-0.806-0.145-0.177-0.29-0.339-0.403-0.5-0.516-0.71-0.613-1.452-0.758-2.258z"></path>
<path fill="#fff" style="fill: var(--color1, #fff)" d="M30.039 15.126c0.339-0.548 0.403-1.726 0.323-2.21-0.048-0.355-0.032-0.71 0-1.065 0.065-0.645 0.226-1.339 0.435-1.823 0.194 0.339 0.403 0.677 0.597 1.113 0.387 0.968 0.403 1.823-0.258 2.678-0.258 0.339-0.726 1.081-1.097 1.307z"></path>
<path fill="#fff" style="fill: var(--color1, #fff)" d="M28.75 14.173c0.145 0.29 0.258 0.5 0.419 0.694 0.29 0.371 0.597 0.629 0.823 0.984 0.177 0.29 0.274 0.565 0.306 0.871 0.032 0.274 0.032 0.5-0.016 0.71-0.081 0.436-0.339 1-0.678 1.339 0-0.274-0.016-0.5-0.065-0.726-0.065-0.339-0.177-0.613-0.322-0.903-0.113-0.21-0.194-0.387-0.274-0.581-0.339-0.79-0.242-1.548-0.193-2.387z"></path>
<path fill="#fff" style="fill: var(--color1, #fff)" d="M29.605 18.787c0.484-0.484 0.839-1.645 0.871-2.161 0.032-0.355 0.145-0.71 0.274-1.065 0.226-0.629 0.549-1.29 0.887-1.742 0.113 0.387 0.242 0.758 0.323 1.226 0.145 1.032-0.049 1.887-0.936 2.629-0.339 0.306-1 0.952-1.419 1.113z"></path>
<path fill="#fff" style="fill: var(--color1, #fff)" d="M28.688 17.335c0.032 0.339 0.081 0.581 0.161 0.839 0.161 0.468 0.371 0.823 0.484 1.242 0.081 0.339 0.065 0.661-0.016 0.984-0.065 0.29-0.161 0.516-0.274 0.726-0.242 0.419-0.726 0.936-1.194 1.194 0.097-0.29 0.161-0.516 0.21-0.758 0.065-0.371 0.048-0.694 0-1.016-0.032-0.242-0.065-0.452-0.065-0.661-0.065-0.952 0.323-1.71 0.694-2.549z"></path>
<path fill="#fff" style="fill: var(--color1, #fff)" d="M27.832 22.319c0.678-0.371 1.484-1.468 1.71-1.984 0.161-0.355 0.419-0.694 0.677-1.016 0.468-0.581 1.049-1.177 1.565-1.548-0.016 0.419-0.048 0.839-0.129 1.355-0.242 1.097-0.758 1.936-1.935 2.452-0.468 0.194-1.387 0.694-1.887 0.742z"></path>
<path fill="#fff" style="fill: var(--color1, #fff)" d="M27.412 20.481c-0.097 0.371-0.145 0.645-0.161 0.936-0.016 0.548 0.081 0.984 0.016 1.468-0.049 0.387-0.194 0.726-0.403 1.032-0.193 0.29-0.371 0.5-0.581 0.694-0.436 0.371-1.161 0.79-1.758 0.919 0.226-0.274 0.387-0.5 0.516-0.742 0.21-0.371 0.323-0.726 0.403-1.081 0.065-0.274 0.129-0.5 0.194-0.726 0.339-1.016 1.048-1.71 1.774-2.5z"></path>
<path fill="#fff" style="fill: var(--color1, #fff)" d="M24.508 25.545c0.871-0.194 2.161-1.129 2.613-1.597 0.323-0.339 0.71-0.613 1.129-0.887 0.726-0.484 1.597-0.952 2.29-1.194-0.194 0.452-0.387 0.887-0.677 1.403-0.694 1.097-1.581 1.839-3.049 2.048-0.565 0.065-1.758 0.323-2.307 0.226z"></path>
<path fill="#fff" style="fill: var(--color1, #fff)" d="M24.767 23.432c-0.274 0.339-0.436 0.597-0.565 0.887-0.242 0.548-0.355 1-0.629 1.468-0.226 0.371-0.532 0.661-0.887 0.919-0.323 0.226-0.613 0.387-0.919 0.516-0.613 0.242-1.565 0.436-2.242 0.387 0.355-0.21 0.629-0.387 0.871-0.597 0.387-0.306 0.661-0.613 0.903-0.968 0.177-0.242 0.355-0.468 0.532-0.677 0.774-0.887 1.823-1.371 2.936-1.936z"></path>
<path fill="#fff" style="fill: var(--color1, #fff)" d="M19.492 27.61c1 0.065 2.774-0.468 3.452-0.806 0.484-0.242 1.016-0.403 1.581-0.549 0.984-0.258 2.097-0.468 2.936-0.5-0.403 0.387-0.79 0.774-1.323 1.194-1.21 0.887-2.468 1.355-4.113 1.113-0.629-0.081-1.984-0.178-2.532-0.452z"></path>
<path fill="#fff" style="fill: var(--color1, #fff)" d="M10.667 11.246v6.274c0 0.279 0.137 0.54 0.367 0.698l4.453 3.056c0.287 0.197 0.665 0.198 0.953 0.003l4.522-3.060c0.233-0.157 0.372-0.42 0.372-0.701v-6.27c0-0.467-0.379-0.846-0.846-0.846h-8.974c-0.467 0-0.846 0.379-0.846 0.846z"></path>
<path fill="#010c07" style="fill: var(--color2, #010c07)" d="M18.519 15.987c-0.037 0.118-0.146 0.199-0.27 0.199h-4.425c-0.124 0-0.233-0.081-0.27-0.199l-0.529-1.711c-0.069-0.222 0.145-0.427 0.364-0.349l0.95 0.339c0.11 0.039 0.234 0.006 0.31-0.083l1.172-1.379c0.113-0.133 0.317-0.133 0.43 0l1.172 1.379c0.076 0.089 0.199 0.122 0.31 0.083l0.95-0.339c0.219-0.078 0.433 0.127 0.364 0.349l-0.529 1.711z"></path>
<path fill="#010c07" style="fill: var(--color2, #010c07)" d="M13.616 17.061c0-0.156 0.126-0.282 0.282-0.282h4.277c0.156 0 0.282 0.126 0.282 0.282v0.029c0 0.156-0.126 0.282-0.282 0.282h-4.277c-0.156 0-0.282-0.126-0.282-0.282v-0.029z"></path>
</symbol>
<symbol id="icon-burger" viewBox="0 0 39 32">
<path fill="#fff" style="fill: var(--color1, #fff)" d="M35.444 6.222h-31.778c-1.35 0-2.444-1.095-2.444-2.444s1.095-2.444 2.444-2.444h31.778c1.35 0 2.444 1.095 2.444 2.444s-1.095 2.444-2.444 2.444z"></path>
<path fill="#fff" style="fill: var(--color1, #fff)" d="M35.444 30.667h-31.778c-1.35 0-2.444-1.095-2.444-2.444s1.095-2.444 2.444-2.444h31.778c1.35 0 2.444 1.095 2.444 2.444s-1.095 2.444-2.444 2.444z"></path>
<path fill="#fff" style="fill: var(--color1, #fff)" d="M35.444 18.444h-31.778c-1.35 0-2.444-1.095-2.444-2.444s1.095-2.444 2.444-2.444h31.778c1.35 0 2.444 1.095 2.444 2.444s-1.095 2.444-2.444 2.444z"></path>
</symbol>
<symbol id="icon-play-show" viewBox="0 0 27 32">
<path fill="#fff" style="fill: var(--color1, #fff)" d="M24.042 11.406c3.556 2.053 3.556 7.185 0 9.238l-16 9.238c-3.556 2.053-8-0.513-8-4.619v-18.475c0-4.106 4.444-6.672 8-4.619l16 9.238z"></path>
</symbol>
<symbol id="icon-location" viewBox="0 0 29 32">
<path fill="#fff" style="fill: var(--color1, #fff)" d="M14.53 1.5c-3.207 0.004-6.282 1.279-8.55 3.547s-3.544 5.343-3.548 8.55c0 3.115 2.412 7.99 7.17 14.49 0.566 0.776 1.308 1.407 2.164 1.842s1.803 0.662 2.764 0.662c0.961 0 1.908-0.227 2.764-0.662s1.598-1.066 2.164-1.842c4.758-6.499 7.17-11.375 7.17-14.49-0.004-3.207-1.28-6.282-3.548-8.55s-5.343-3.543-8.55-3.547zM14.53 18.419c-0.959 0-1.896-0.284-2.694-0.817s-1.419-1.29-1.786-2.176c-0.367-0.886-0.463-1.861-0.276-2.801s0.649-1.804 1.327-2.482c0.678-0.678 1.542-1.14 2.482-1.327s1.915-0.091 2.801 0.276c0.886 0.367 1.643 0.988 2.176 1.786s0.817 1.735 0.817 2.694c0 1.286-0.511 2.519-1.42 3.428s-2.143 1.42-3.428 1.42z"></path>
</symbol>
<symbol id="icon-calendar-clock" viewBox="0 0 32 32">
<path fill="#fff" style="fill: var(--color1, #fff)" d="M31.875 10.332v1.25h-30v-1.25c0-3.451 2.799-6.25 6.25-6.25h1.25v-1.25c0-0.69 0.56-1.25 1.25-1.25s1.25 0.56 1.25 1.25v1.25h10v-1.25c0-0.69 0.56-1.25 1.25-1.25s1.25 0.56 1.25 1.25v1.25h1.25c3.451 0 6.25 2.799 6.25 6.25zM31.875 22.832c0 4.825-3.926 8.75-8.75 8.75s-8.75-3.925-8.75-8.75c0-4.825 3.926-8.75 8.75-8.75s8.75 3.925 8.75 8.75zM25.625 23.565l-1.25-1.25v-1.983c0-0.69-0.56-1.25-1.25-1.25s-1.25 0.56-1.25 1.25v2.5c0 0.331 0.131 0.65 0.366 0.884l1.616 1.616c0.487 0.488 1.28 0.488 1.767 0s0.487-1.28 0-1.767zM11.875 22.832c0-3.536 1.635-6.687 4.186-8.75h-14.186v11.25c0 3.451 2.799 6.25 6.25 6.25h7.936c-2.551-2.062-4.186-5.214-4.186-8.75z"></path>
</symbol>
<symbol id="icon-write" viewBox="0 0 32 32">
<path d="M23.986 1.006c-0.78 0.011-1.527 0.323-2.077 0.872l-2.301 2.299 6.254 6.254 2.3-2.299c1.164-1.165 1.164-3.086 0-4.251 0 0-2.008-2.003-2.011-2.003-0.576-0.574-1.353-0.887-2.166-0.872zM18.192 5.594l-14.317 14.317c-0.56 0.562-0.88 1.329-0.88 2.123v4.006c-0.002 0.557 0.45 1.009 1.007 1.006l4.006-0.008c0.794-0.001 1.552-0.312 2.115-0.872l14.325-14.317-6.256-6.254zM3.9 29.048c-0.001 0.001-0.001 0.001-0.002 0.002-1.305 0.097-1.204 2.042 0.104 2.003h24.036c1.366 0.031 1.366-2.034 0-2.003h-24.036c-0.034-0.002-0.068-0.003-0.102-0.002z"></path>
</symbol>
<symbol id="icon-logo-mob" viewBox="0 0 72 32">
<path fill="#fff" style="fill: var(--color1, #fff)" d="M14.581 32c-4.734 0-8.347-1.013-10.84-3.040-2.494-2.027-3.741-4.752-3.741-8.177 0-0.597 0.079-1.288 0.238-2.074l4.193-18.71h8.339l-4.145 18.522c-0.095 0.22-0.143 0.66-0.143 1.319 0.031 1.414 0.579 2.616 1.644 3.605s2.55 1.485 4.455 1.485c4.003 0 6.48-2.136 7.433-6.409l4.145-18.522h8.291l-4.145 18.663c-0.953 4.179-2.661 7.446-5.122 9.803s-5.997 3.535-10.602 3.535v-0z"></path>
<path fill="#fff" style="fill: var(--color1, #fff)" d="M64.996 31.434h-8.196l4.622-20.784-12.675 20.784h-3.621l-3.383-20.784-4.622 20.784h-8.196l7.005-31.434h11.103l2.764 17.39 10.531-17.39h11.674l-7.005 31.434z"></path>
</symbol>
<symbol id="icon-logo-desk" viewBox="0 0 73 32">
<path fill="#fff" style="fill: var(--color1, #fff)" d="M14.784 32c-4.8 0-8.463-1.013-10.991-3.040-2.529-2.027-3.793-4.752-3.793-8.177 0-0.597 0.080-1.288 0.242-2.074l4.251-18.71h8.455l-4.203 18.521c-0.096 0.22-0.145 0.66-0.145 1.32 0.032 1.414 0.587 2.616 1.667 3.605s2.585 1.485 4.517 1.485c4.058 0 6.57-2.136 7.537-6.409l4.202-18.521h8.406l-4.203 18.663c-0.966 4.179-2.698 7.446-5.194 9.803s-6.080 3.535-10.75 3.535v-0z"></path>
<path fill="#fff" style="fill: var(--color1, #fff)" d="M65.898 31.434h-8.31l4.686-20.784-12.851 20.784h-3.672l-3.43-20.784-4.686 20.784h-8.31l7.102-31.434h11.257l2.802 17.39 10.677-17.39h11.837l-7.102 31.434z"></path>
</symbol>
</defs>
</svg>
